<?xml version="1.0" standalone="no"?>
<!DOCTYPE svg PUBLIC "-//W3C//DTD SVG 20010904//EN"
 "http://www.w3.org/TR/2001/REC-SVG-20010904/DTD/svg10.dtd">
<svg version="1.0" xmlns="http://www.w3.org/2000/svg"
 width="1024.000000pt" height="1024.000000pt" viewBox="0 0 1024.000000 1024.000000"
 preserveAspectRatio="xMidYMid meet">
<metadata>
Created by potrace 1.11, written by Peter Selinger 2001-2013
</metadata>
<g transform="translate(0.000000,1024.000000) scale(0.100000,-0.100000)"
fill="#000000" stroke="none">
<path d="M5090 10188 c-13 -29 -49 -107 -80 -173 -32 -66 -69 -145 -82 -175
-22 -48 -241 -518 -345 -740 -20 -41 -48 -102 -63 -135 -15 -33 -48 -103 -72
-155 -25 -52 -60 -126 -78 -165 -18 -38 -52 -112 -76 -162 -24 -51 -44 -95
-44 -97 0 -2 -27 -60 -59 -128 -32 -67 -73 -154 -91 -193 -53 -114 -164 -354
-208 -445 -22 -47 -69 -148 -105 -225 -36 -77 -84 -180 -107 -230 -23 -49 -57
-121 -75 -160 -17 -38 -48 -104 -67 -145 -57 -119 -104 -220 -136 -290 -16
-36 -51 -110 -77 -165 -120 -256 -135 -287 -135 -291 0 -2 -31 -69 -70 -150
-38 -80 -70 -147 -70 -149 0 -1 -26 -58 -59 -126 -32 -68 -68 -144 -79 -169
-18 -41 -48 -105 -147 -315 -18 -38 -76 -162 -128 -275 -52 -113 -122 -263
-156 -333 -34 -71 -61 -130 -61 -132 0 -1 -22 -49 -49 -106 -75 -160 -124
-266 -231 -494 -54 -115 -117 -250 -140 -300 -23 -49 -57 -121 -75 -160 -18
-38 -49 -106 -70 -150 -21 -44 -50 -107 -65 -140 -15 -33 -46 -98 -68 -145
-22 -47 -86 -184 -142 -305 -56 -121 -117 -251 -135 -290 -18 -38 -54 -114
-79 -168 l-46 -99 23 -19 c12 -10 25 -18 29 -19 10 0 102 -63 106 -72 2 -4 7
-8 12 -8 5 0 129 -78 277 -174 147 -96 409 -266 581 -378 172 -111 397 -257
500 -323 103 -67 252 -164 332 -216 238 -156 449 -293 473 -307 12 -7 54 -34
94 -60 40 -26 179 -117 310 -202 131 -85 295 -192 365 -237 70 -46 131 -83
135 -83 5 0 9 387 8 859 l0 860 -645 418 c-355 230 -669 434 -697 452 -29 19
-53 36 -53 38 0 2 15 36 34 76 18 40 44 95 56 122 13 28 49 106 81 174 33 68
59 125 59 126 0 2 27 61 61 132 34 70 101 214 149 318 48 105 111 240 140 300
29 61 66 139 82 175 49 104 93 199 133 285 20 44 51 112 70 150 111 235 135
288 135 290 0 2 26 59 59 126 32 68 69 147 81 174 13 28 49 106 81 174 33 68
59 125 59 127 0 2 34 74 75 160 41 86 75 158 75 159 0 2 23 52 51 112 28 59
77 164 109 233 31 69 75 163 98 210 76 161 139 295 197 423 33 70 62 127 65
127 3 0 20 -30 37 -67 18 -38 49 -106 71 -153 53 -116 108 -233 142 -305 15
-33 91 -195 168 -360 77 -165 163 -349 191 -408 28 -59 51 -109 51 -111 0 -2
26 -59 59 -127 52 -110 212 -453 294 -629 16 -36 56 -121 88 -189 33 -68 59
-125 59 -127 0 -2 32 -69 70 -150 38 -80 70 -147 70 -149 0 -2 22 -50 49 -107
41 -87 185 -394 303 -648 17 -36 48 -101 68 -145 21 -44 49 -105 63 -135 24
-54 82 -177 140 -298 16 -34 28 -64 26 -66 -10 -8 -119 -80 -267 -176 -174
-112 -456 -295 -667 -433 -71 -46 -202 -131 -290 -188 -88 -56 -162 -105 -165
-107 -8 -6 -7 -1722 2 -1722 7 0 161 95 183 113 6 4 258 168 560 364 303 196
606 392 675 437 69 45 173 113 233 151 59 39 162 106 230 150 67 44 185 120
262 170 77 49 142 92 145 95 3 3 13 10 23 15 16 9 244 157 577 374 80 52 181
118 225 146 44 29 90 57 102 64 26 13 26 11 -35 141 -24 52 -71 151 -102 220
-80 174 -188 405 -249 533 -28 60 -51 110 -51 111 0 2 -29 64 -64 137 -35 74
-91 195 -126 269 -34 74 -96 206 -136 292 -41 86 -87 185 -103 220 -28 63
-363 780 -426 913 -18 39 -62 133 -98 210 -36 77 -88 189 -116 248 -28 60 -51
110 -51 112 0 1 -34 73 -75 160 -41 86 -75 158 -75 160 0 1 -24 54 -54 116
-57 123 -237 506 -294 629 -19 41 -52 113 -74 160 -22 47 -82 175 -133 285
-51 110 -116 250 -145 310 -29 61 -91 196 -140 300 -48 105 -108 233 -133 286
-25 52 -75 158 -110 235 -36 76 -84 180 -107 229 -23 50 -86 185 -140 300 -54
116 -116 248 -138 295 -22 47 -51 110 -65 140 -14 30 -46 100 -72 155 -26 55
-73 156 -105 225 -91 196 -128 277 -184 395 -29 61 -79 167 -111 238 -32 70
-61 127 -65 127 -3 0 -17 -24 -30 -52z"/>
</g>
</svg>
